<svg xmlns="http://www.w3.org/2000/svg" viewBox="0 0 24 24" width="24" height="24"><path d="M7.47 21.49C4.2 19.93 1.86 16.76 1.5 13H0c.51 6.16 5.66 11 11.95 11l.66-.03-3.81-3.81-1.33 1.33zm.89-6.22c-.19-.19-.29-.45-.29-.71a1 1 0 0 1 1-1h6v-6a1 1 0 0 1 1-1c.26 0 .51.1.71.29l4 4c.18.18.29.43.29.71s-.11.53-.29.71l-4 4c-.2.19-.45.29-.71.29a1 1 0 0 1-1-1v-3H9.07c-.27 0-.52-.11-.71-.29zM12.05 0l-.66.03 3.81 3.81 1.33-1.33C19.8 4.07 22.14 7.24 22.5 11H24c-.51-6.16-5.66-11-11.95-11z" fill="white"/></svg>
